<svg xmlns="http://www.w3.org/2000/svg" version="1.1" xmlns:xlink="http://www.w3.org/1999/xlink" xmlns:svgjs="http://svgjs.dev/svgjs" width="1440" height="1440" preserveAspectRatio="none" viewBox="0 0 1440 1440">
    <g mask="url(&quot;#SvgjsMask2296&quot;)" fill="none">
        <rect width="1440" height="1440" x="0" y="0" fill="url(&quot;#SvgjsLinearGradient2297&quot;)"></rect>
        <path d="M1464 1440L0 1440 L0 865.16Q18.91 764.07, 120 782.97Q126.54 717.51, 192 724.05Q246.91 658.96, 312 713.87Q370.44 700.31, 384 758.75Q413.62 716.37, 456 745.98Q510.44 728.42, 528 782.87Q627.3 762.17, 648 861.47Q694.21 835.68, 720 881.89Q734.56 776.45, 840 791.01Q860.43 739.44, 912 759.88Q934.33 710.21, 984 732.54Q1038.99 715.53, 1056 770.53Q1130.24 772.77, 1128 847.01Q1106.04 753.05, 1200 731.09Q1249.8 660.89, 1320 710.69Q1374.68 693.38, 1392 748.06Q1441.18 725.24, 1464 774.43z" fill="rgba(248, 177, 149, 1)"></path>
        <path d="M1488 1440L0 1440 L0 981.08Q106.75 1015.84, 72 1122.59Q-1.21 977.38, 144 904.17Q272.78 960.95, 216 1089.74Q210.92 1012.66, 288 1007.59Q295.63 943.22, 360 950.85Q366.46 885.31, 432 891.76Q500.28 840.04, 552 908.32Q637.42 873.75, 672 959.17Q742.51 957.68, 744 1028.2Q775.7 939.9, 864 971.6Q944.77 932.38, 984 1013.15Q1032.01 989.16, 1056 1037.17Q1100.42 1009.59, 1128 1054.01Q1145.02 951.03, 1248 968.06Q1299.81 899.87, 1368 951.68Q1400.05 863.72, 1488 895.77z" fill="rgba(246, 114, 128, 1)"></path>
        <path d="M1488 1440L0 1440 L0 1129.06Q113.16 1122.22, 120 1235.39Q164.28 1207.67, 192 1251.95Q248.54 1236.49, 264 1293.03Q311.09 1268.12, 336 1315.2Q369.77 1228.97, 456 1262.73Q430.48 1117.21, 576 1091.69Q623.3 1066.99, 648 1114.3Q764.17 1110.47, 768 1226.65Q835.38 1222.04, 840 1289.42Q854.46 1231.88, 912 1246.35Q900.24 1162.59, 984 1150.83Q1018.99 1065.82, 1104 1100.81Q1194.2 1071.01, 1224 1161.21Q1334.17 1199.38, 1296 1309.55Q1288.08 1229.63, 1368 1221.7Q1420.95 1154.65, 1488 1207.61z" fill="rgba(192, 108, 116, 1)"></path>
        <path d="M1488 1440L0 1440 L0 1326.69Q105.07 1311.76, 120 1416.82Q146.44 1371.26, 192 1397.71Q267.1 1352.81, 312 1427.91Q356.04 1399.95, 384 1443.98Q385.13 1373.11, 456 1374.23Q502.49 1300.72, 576 1347.2Q672.06 1323.26, 696 1419.32Q721.59 1372.9, 768 1398.49Q736.19 1294.68, 840 1262.87Q981.7 1332.57, 912 1474.27Q904.03 1394.3, 984 1386.34Q987.81 1270.14, 1104 1273.95Q1170.45 1220.4, 1224 1286.86Q1273.98 1264.84, 1296 1314.83Q1368.35 1315.17, 1368 1387.52Q1448.35 1347.87, 1488 1428.21z" fill="rgba(108, 91, 123, 1)"></path>
    </g>
    <defs>
        <mask id="SvgjsMask2296">
            <rect width="1440" height="1440" fill="#ffffff"></rect>
        </mask>
        <linearGradient x1="50%" y1="0%" x2="50%" y2="100%" gradientUnits="userSpaceOnUse" id="SvgjsLinearGradient2297">
            <stop stop-color="rgba(14, 42, 71, 1)" offset="0"></stop>
            <stop stop-color="rgba(81, 84, 148, 1)" offset="1"></stop>
        </linearGradient>
    </defs>
</svg>